<svg width="89" height="18" viewBox="0 0 89 18" fill="none" xmlns="http://www.w3.org/2000/svg">
<path d="M5.0003 11.0343C5.06715 10.8396 4.92245 10.6369 4.71655 10.6369H0.664991C0.406624 10.6369 0.269099 10.332 0.440083 10.1383L8.39149 1.1308C8.60874 0.884698 9.0067 1.1162 8.90016 1.42671L6.99902 6.96723C6.9322 7.16196 7.0769 7.3646 7.28278 7.3646H11.3349C11.5933 7.3646 11.7308 7.66948 11.5598 7.86317L3.60745 16.8693C3.39016 17.1154 2.99224 16.8838 3.09882 16.5733L5.0003 11.0343Z" fill="black"/>
<path d="M25.56 14.2098C27.795 14.2098 29.37 13.0098 29.37 11.0448C29.37 8.89981 27.6 8.34481 25.935 7.8198C24.345 7.3398 23.94 6.99481 23.94 6.3498C23.94 5.7498 24.45 5.2998 25.32 5.2998C26.385 5.2998 26.955 5.8548 27.33 6.6498L29.07 5.6448C28.365 4.1748 27.045 3.2898 25.32 3.2898C23.52 3.2898 21.87 4.4298 21.87 6.4098C21.87 8.4048 23.43 9.07981 25.035 9.54481C26.595 9.9948 27.3 10.2948 27.3 11.0748C27.3 11.6598 26.865 12.1848 25.62 12.1848C24.315 12.1848 23.58 11.5548 23.205 10.5798L21.435 11.6148C22.005 13.1748 23.415 14.2098 25.56 14.2098Z" fill="black"/>
<path d="M34.7004 8.3598V6.4998H33.0054V4.3998L31.0704 4.9848V6.4998H29.7654V8.3598H31.0704V11.4798C31.0704 13.5048 31.9854 14.2998 34.7004 13.9998V12.2448C33.5904 12.3048 33.0054 12.2898 33.0054 11.4798V8.3598H34.7004Z" fill="black"/>
<path d="M41.5303 6.4998V7.3848C40.9903 6.7098 40.1803 6.2898 39.0853 6.2898C37.0903 6.2898 35.4403 8.0148 35.4403 10.2498C35.4403 12.4848 37.0903 14.2098 39.0853 14.2098C40.1803 14.2098 40.9903 13.7898 41.5303 13.1148V13.9998H43.4653V6.4998H41.5303ZM39.4453 12.3648C38.2603 12.3648 37.3753 11.5098 37.3753 10.2498C37.3753 8.9898 38.2603 8.1348 39.4453 8.1348C40.6453 8.1348 41.5303 8.9898 41.5303 10.2498C41.5303 11.5098 40.6453 12.3648 39.4453 12.3648Z" fill="black"/>
<path d="M48.79 14.2098C50.26 14.2098 51.535 13.4298 52.18 12.2598L50.5 11.2998C50.2 11.9148 49.555 12.2898 48.775 12.2898C47.62 12.2898 46.765 11.4348 46.765 10.2498C46.765 9.0498 47.62 8.1948 48.775 8.1948C49.54 8.1948 50.185 8.5848 50.485 9.1998L52.15 8.2248C51.535 7.0698 50.26 6.2898 48.79 6.2898C46.51 6.2898 44.83 8.0148 44.83 10.2498C44.83 12.4848 46.51 14.2098 48.79 14.2098Z" fill="black"/>
<path d="M60.1184 13.9998L57.0134 10.2048L60.0284 6.4998H57.7184L55.1384 9.79981V3.4998H53.2034V13.9998H55.1384V10.5948L57.8684 13.9998H60.1184Z" fill="black"/>
<path d="M67.5192 8.55481C68.1342 8.0598 68.5092 7.3548 68.5092 6.4548C68.5092 4.69981 67.0842 3.4998 65.3142 3.4998H61.1742V13.9998H65.6292C67.4442 13.9998 68.8992 12.7548 68.8992 10.9548C68.8992 9.8598 68.3592 9.0348 67.5192 8.55481ZM65.3142 5.4348C65.9742 5.4348 66.4392 5.9298 66.4392 6.5898C66.4392 7.2498 65.9592 7.7448 65.3142 7.7448H63.2442V5.4348H65.3142ZM65.6292 12.0648H63.2442V9.58981H65.6292C66.3342 9.58981 66.8442 10.1148 66.8442 10.8198C66.8442 11.5398 66.3342 12.0648 65.6292 12.0648Z" fill="black"/>
<path d="M70.1662 13.9998H72.1012V3.0498H70.1662V13.9998Z" fill="black"/>
<path d="M74.8323 5.5998C75.4923 5.5998 76.0323 5.0598 76.0323 4.4148C76.0323 3.7698 75.4923 3.2148 74.8323 3.2148C74.1873 3.2148 73.6473 3.7698 73.6473 4.4148C73.6473 5.0598 74.1873 5.5998 74.8323 5.5998ZM73.8723 13.9998H75.8073V6.4998H73.8723V13.9998Z" fill="black"/>
<path d="M81.8684 8.3598V6.4998H80.1734V4.3998L78.2384 4.9848V6.4998H76.9334V8.3598H78.2384V11.4798C78.2384 13.5048 79.1534 14.2998 81.8684 13.9998V12.2448C80.7584 12.3048 80.1734 12.2898 80.1734 11.4798V8.3598H81.8684Z" fill="black"/>
<path d="M85.5437 12.1848L88.7237 7.7898V6.4998H83.0987V8.3148H86.1137L82.9487 12.7098V13.9998H88.8737V12.1848H85.5437Z" fill="black"/>
</svg>
